# xmcd
#
# Track frame offsets: 
#        150
#        14135
#        29619
#        42513
#        58675
#        79129
#        94943
#        111984
#        130815
#        147218
#        165608
#        177110
#        187924
#        201361
#        216410
#        227954
#
# Disc length: 3237 seconds
#
# Revision: 0
# Processed by: cddbd v1.5.2PL0 Copyright (c) Steve Scherf et al.
# Submitted via: ExactAudioCopy v0.95b4
#
DISCID=ef0ca310
DTITLE=Kenny Rogers - Gold
DYEAR=1998
DGENRE=Country
TTITLE0=But You Know I Love You
TTITLE1=For The Good Times
TTITLE2=Ruby, Don't Take Your Love To Town
TTITLE3=Lucille
TTITLE4=Coward Of The Country
TTITLE5=The Gambler
TTITLE6=Lady
TTITLE7=Island In The Stream with Doly Parton
TTITLE8=You Decorated My Life
TTITLE9=Something's Burning
TTITLE10=Poem For A Little Lady
TTITLE11=She Even Woke Me Up To Say Goodbye
TTITLE12=Shine On Ruby Mountain
TTITLE13=Tell It All Brother
TTITLE14=Me and Bobby McGhee
TTITLE15=Church Without A Name
EXTD=
EXTT0=
EXTT1=
EXTT2=
EXTT3=
EXTT4=
EXTT5=
EXTT6=
EXTT7=
EXTT8=
EXTT9=
EXTT10=
EXTT11=
EXTT12=
EXTT13=
EXTT14=
EXTT15=
PLAYORDER=
